<?xml version="1.0" encoding="UTF-8" standalone="no"?>
<!-- Created with Inkscape (http://www.inkscape.org/) -->

<svg
   version="1.1"
   id="svg1"
   width="2933.3333"
   height="2933.3333"
   viewBox="0 0 2933.3333 2933.3333"
   sodipodi:docname="strawberry_fruit_with_shadows.eps"
   xmlns:inkscape="http://www.inkscape.org/namespaces/inkscape"
   xmlns:sodipodi="http://sodipodi.sourceforge.net/DTD/sodipodi-0.dtd"
   xmlns="http://www.w3.org/2000/svg"
   xmlns:svg="http://www.w3.org/2000/svg">
  <defs
     id="defs1" />
   <sodipodi:namedview
       id="namedview1"
       bordercolor="#000000"
       borderopacity="0.25"
       inkscape:showpageshadow="2"
       inkscape:pageopacity="0.0"
       inkscape:pagecheckerboard="0"
       inkscape:deskcolor="#d1d1d1">
    <inkscape:page
       x="0"
       y="0"
       inkscape:label="1"
       id="page1"
       width="2933.3333"
       height="2933.3333"
       margin="0"
       bleed="0" />
  </sodipodi:namedview>
  <g
     id="g1"
     inkscape:groupmode="layer"
     inkscape:label="1">
    <g
       id="group-R5">
      <path
         id="path3"
         d="m 14059.7,1169.5 c 0,-208.5 -1521.6,-377.602 -3398.6,-377.602 -1877.02,0 -3398.62,169.102 -3398.62,377.602 0,208.6 1521.6,377.7 3398.62,377.7 1877,0 3398.6,-169.1 3398.6,-377.7"
         style="fill:#dde1db;fill-opacity:1;fill-rule:nonzero;stroke:none"
         transform="matrix(0.13333333,0,0,-0.13333333,0,2933.3333)" />
      <path
         id="path4"
         d="m 16098.1,16465.9 c 1521.1,-1472.7 2279.9,-3473.8 1796,-5323 C 16654.4,6406.3 10959.5,1865.1 8364.15,2544.3 5768.76,3223.6 3028.63,9972.4 4268.27,14708.9 c 483.96,1849.3 2093.41,3230.6 4140.95,3769.3 l 7688.88,-2012.3"
         style="fill:#ee2544;fill-opacity:1;fill-rule:nonzero;stroke:none"
         transform="matrix(0.13333333,0,0,-0.13333333,0,2933.3333)" />
      <path
         id="path5"
         d="M 17894.1,11142.9 C 16654.4,6406.3 10959.6,1865.1 8364.15,2544.3 7175.77,2855.4 5957.11,4438.9 5103.91,6519 5665.54,5800 6498.65,4699.7 7092.01,4291.6 7783.46,3816.2 8655.02,3548 9468.69,3769.1 c 517.59,140.7 970.91,464.2 1409.81,784.6 1172.9,856.2 2337.1,1738.9 3348.3,2793.7 1011.2,1054.7 1870.1,2295.6 2326.8,3697.6 233.7,717.7 359.7,1484.6 252.6,2227.5 -91.8,637.8 -604.1,1759.2 -1622.2,2896.1 -200.6,26.7 -401.7,46.2 -603,58 709.2,-601.6 1138.8,-1476.7 1136.6,-2412 7.1,-105.9 -83.3,-186.2 -189.1,-193.2 -64.9,17 -97.4,25.5 -121.3,66.4 -538.5,591.6 -1143.3,1061.9 -1838.6,1451.8 -101.8,-389.2 -203.7,-778.6 -370.5,-1150.9 -66.4,-121.3 -180.8,-160.7 -310.5,-126.7 -64.9,17 -121.3,66.4 -136.7,139.8 -228.1,718.2 -693.1,1325.3 -1257.1,1819.5 -567.7,148.6 -1186.1,137.1 -1748.11,58.8 -562.09,-78.1 -1068.08,-223.1 -1410.94,-341.3 -114.27,-39.4 -203.2,18.5 -242.53,132.8 -24.03,40.9 -7.04,105.8 1.47,138.3 456.35,816.5 1259.5,1368.9 2172.51,1546 -768.66,374.5 -1603.65,627.6 -2464.11,783.5 -56.76,14.8 -107.83,51.8 -135.33,99.4 239.85,92.4 487.79,172.4 742.47,239.4 l 7688.87,-2012.3 c 76.5,-74.1 151.1,-149.6 223.7,-226.3 11.7,-12.3 23.3,-24.6 34.9,-37 12.5,-13.4 24.9,-26.7 37.2,-40.1 11.8,-12.9 23.7,-25.9 35.4,-38.9 9.5,-10.4 18.8,-20.8 28.2,-31.3 72.4,-80.8 142.7,-163 210.7,-246.3 1132.2,-1387.2 1644.9,-3102.1 1225.9,-4703.1"
         style="fill:#cc2345;fill-opacity:1;fill-rule:nonzero;stroke:none"
         transform="matrix(0.13333333,0,0,-0.13333333,0,2933.3333)" />
      <path
         id="path6"
         d="m 16933.1,16212.7 c -826.5,285.7 -1678.5,474 -2532.1,524.1 709.2,-601.6 1138.8,-1476.7 1136.7,-2412.1 6.9,-105.8 -83.4,-186.1 -189.2,-193.1 -64.9,17 -97.4,25.5 -121.3,66.4 -538.5,591.6 -1143.4,1061.9 -1838.6,1451.8 -101.9,-389.3 -203.8,-778.6 -370.5,-1150.9 -66.4,-121.3 -180.7,-160.7 -310.5,-126.8 -64.9,17 -121.3,66.4 -136.8,139.8 -227.9,718.3 -693,1325.3 -1257,1819.6 v 0 c -1135.5,297.1 -2473.2,-46 -3159.05,-282.5 -114.31,-39.4 -203.14,18.5 -242.55,132.8 -23.96,40.9 -6.98,105.8 1.51,138.3 456.35,816.5 1259.55,1368.9 2172.49,1545.9 -768.6,374.5 -1603.61,627.7 -2464.09,783.6 -97.33,25.4 -177.68,115.8 -152.2,213.1 16.98,64.9 66.4,121.3 107.33,145.2 776.21,316.9 2375.01,730.4 4431.26,-154.4 285.7,826.5 725,1578.1 1342.1,2213.9 303.5,232.6 701.3,163.1 942.3,-108 208.6,-262.5 180.1,-636.4 -58.5,-885.9 -395.4,-451.2 -702,-960.2 -919.7,-1527.2 1495.4,-114 2894.4,-861.5 3841.5,-2010.7 47.9,-81.8 54.9,-187.6 -35.4,-268 -58,-88.8 -122.8,-71.8 -187.7,-54.9"
         style="fill:#60c568;fill-opacity:1;fill-rule:nonzero;stroke:none"
         transform="matrix(0.13333333,0,0,-0.13333333,0,2933.3333)" />
      <path
         id="path7"
         d="m 7541.38,14602.6 c -71.66,-273.8 -453.22,-679.2 -768.29,-596.8 -315.07,82.5 -449.08,622.9 -377.43,896.7 71.66,273.8 388.07,430.3 703.14,347.9 315.07,-82.5 514.23,-374 442.58,-647.8"
         style="fill:#ffffff;fill-opacity:1;fill-rule:nonzero;stroke:none"
         transform="matrix(0.13333333,0,0,-0.13333333,0,2933.3333)" />
      <path
         id="path8"
         d="m 10091.3,12652 c -71.6,-273.8 -453.18,-679.3 -768.25,-596.8 -315.07,82.4 -449.09,622.8 -377.43,896.6 71.65,273.8 388.07,430.4 703.14,347.9 315.07,-82.5 514.24,-373.9 442.54,-647.7"
         style="fill:#ffffff;fill-opacity:1;fill-rule:nonzero;stroke:none"
         transform="matrix(0.13333333,0,0,-0.13333333,0,2933.3333)" />
      <path
         id="path9"
         d="m 12955.6,11902.3 c -71.6,-273.8 -453.2,-679.2 -768.3,-596.7 -315,82.4 -449.1,622.8 -377.4,896.6 71.7,273.8 388.1,430.3 703.1,347.9 315.1,-82.5 514.3,-374 442.6,-647.8"
         style="fill:#ffffff;fill-opacity:1;fill-rule:nonzero;stroke:none"
         transform="matrix(0.13333333,0,0,-0.13333333,0,2933.3333)" />
      <path
         id="path10"
         d="m 15774.9,12447.8 c -71.7,-273.8 -453.2,-679.3 -768.3,-596.8 -315.1,82.5 -449.1,622.8 -377.4,896.6 71.6,273.8 388.1,430.4 703.1,347.9 315.1,-82.4 514.3,-373.9 442.6,-647.7"
         style="fill:#ffffff;fill-opacity:1;fill-rule:nonzero;stroke:none"
         transform="matrix(0.13333333,0,0,-0.13333333,0,2933.3333)" />
      <path
         id="path11"
         d="m 7505.23,11016.7 c -71.66,-273.8 -453.21,-679.2 -768.28,-596.8 -315.07,82.5 -449.09,622.9 -377.43,896.7 71.65,273.8 388.07,430.3 703.14,347.9 315.07,-82.5 514.23,-374 442.57,-647.8"
         style="fill:#ffffff;fill-opacity:1;fill-rule:nonzero;stroke:none"
         transform="matrix(0.13333333,0,0,-0.13333333,0,2933.3333)" />
      <path
         id="path12"
         d="m 10806.9,9539.2 c -71.6,-273.8 -453.2,-679.2 -768.3,-596.8 -315.04,82.5 -449.06,622.9 -377.4,896.7 71.65,273.8 388.1,430.3 703.1,347.8 315.1,-82.4 514.3,-373.9 442.6,-647.7"
         style="fill:#ffffff;fill-opacity:1;fill-rule:nonzero;stroke:none"
         transform="matrix(0.13333333,0,0,-0.13333333,0,2933.3333)" />
      <path
         id="path13"
         d="m 9658.43,5150.9 c -71.66,-273.8 -453.21,-679.2 -768.28,-596.8 -315.08,82.5 -449.09,622.9 -377.43,896.7 71.65,273.8 388.06,430.3 703.14,347.9 315.07,-82.5 514.22,-374 442.57,-647.8"
         style="fill:#ffffff;fill-opacity:1;fill-rule:nonzero;stroke:none"
         transform="matrix(0.13333333,0,0,-0.13333333,0,2933.3333)" />
      <path
         id="path14"
         d="m 8446.68,7763.3 c -71.66,-273.7 -453.21,-679.2 -768.28,-596.7 -315.07,82.4 -449.09,622.8 -377.43,896.6 71.65,273.8 388.07,430.3 703.14,347.9 315.07,-82.5 514.23,-374 442.57,-647.8"
         style="fill:#ffffff;fill-opacity:1;fill-rule:nonzero;stroke:none"
         transform="matrix(0.13333333,0,0,-0.13333333,0,2933.3333)" />
      <path
         id="path15"
         d="m 12225.6,6774.3 c -71.6,-273.8 -453.2,-679.2 -768.3,-596.8 -315,82.5 -449,622.9 -377.4,896.7 71.7,273.8 388.1,430.3 703.2,347.9 315,-82.5 514.2,-374 442.5,-647.8"
         style="fill:#ffffff;fill-opacity:1;fill-rule:nonzero;stroke:none"
         transform="matrix(0.13333333,0,0,-0.13333333,0,2933.3333)" />
      <path
         id="path16"
         d="m 14185.6,9585.8 c -71.6,-273.8 -453.2,-679.3 -768.3,-596.8 -315,82.5 -449.1,622.8 -377.4,896.6 71.7,273.8 388.1,430.4 703.1,347.9 315.1,-82.4 514.3,-373.9 442.6,-647.7"
         style="fill:#ffffff;fill-opacity:1;fill-rule:nonzero;stroke:none"
         transform="matrix(0.13333333,0,0,-0.13333333,0,2933.3333)" />
      <path
         id="path17"
         d="m 4908.32,13535 c -361.11,94.5 -425.48,590.9 -165.19,1276.8 474.24,1249.7 1361.04,2050.5 1860.7,2424.3 191.35,143.1 464.05,92.6 591.39,-109.7 v 0 c 105.66,-167.7 75.8,-387 -70.77,-520.5 -291.98,-266.1 -778.17,-760.8 -1180.7,-1422.2 -187.78,-308.5 -330.73,-641.8 -434.23,-987.8 -89.87,-300.5 -279.67,-745.1 -601.2,-660.9"
         style="fill:#f0415e;fill-opacity:1;fill-rule:nonzero;stroke:none"
         transform="matrix(0.13333333,0,0,-0.13333333,0,2933.3333)" />
      <path
         id="path18"
         d="m 5142.99,12591.3 c -57.41,-219.4 -281.78,-350.7 -501.15,-293.3 -219.36,57.4 -350.65,281.8 -293.24,501.2 57.41,219.3 281.78,350.6 501.15,293.2 219.37,-57.4 350.66,-281.8 293.24,-501.1"
         style="fill:#f0415e;fill-opacity:1;fill-rule:nonzero;stroke:none"
         transform="matrix(0.13333333,0,0,-0.13333333,0,2933.3333)" />
      <path
         id="path19"
         d="m 10611.7,18574 c -50.8,-120.7 -117.8,-255.2 -257.8,-288 -100.7,-23.8 -210.6,13.4 -311.9,50 -421.09,152.4 -842.08,304.7 -1263.18,457 l -1.5,0.5 c -67.72,24.2 -71.05,108.8 -5.21,127.8 64.91,18.8 128.36,36.2 173.72,46.9 465.67,109.4 967.48,120.7 1454.87,30.9 72.2,-13.3 149,-31.3 201,-80.5 96.9,-91.9 56.6,-233.6 10,-344.6"
         style="fill:#7fd07f;fill-opacity:1;fill-rule:nonzero;stroke:none"
         transform="matrix(0.13333333,0,0,-0.13333333,0,2933.3333)" />
      <path
         id="path20"
         d="m 10214.4,17394 c 7,-97.2 7.9,-209.1 -73.9,-278.1 -58.8,-49.8 -144.3,-62.1 -223.84,-72 -330.82,-41 -661.56,-82 -992.37,-123 l -1.17,-0.2 c -53.07,-6.8 -83.84,48.2 -46.57,83 36.72,34.4 72.96,67.3 99.46,89.7 272.03,229.8 601.19,406.6 954.91,511.5 52.4,15.5 109.48,29.5 160.48,14.4 95.3,-28.3 116.4,-135.9 123,-225.3"
         style="fill:#7fd07f;fill-opacity:1;fill-rule:nonzero;stroke:none"
         transform="matrix(0.13333333,0,0,-0.13333333,0,2933.3333)" />
      <path
         id="path21"
         d="m 14092.9,20657.4 c -223.6,-168 -489.6,-278.9 -766.2,-319.5 -58.6,-8.6 -122.9,-13 -172.8,19 -12.7,8.1 -13.6,38.2 -7.1,79.2 12,74.8 41.3,145.5 82,209.4 74.2,116.7 169.5,219 288.2,288.5 175.7,103 407.7,122.6 581,15.9 50.3,-31 98.2,-78.7 99.3,-137.7 1.2,-64.7 -52.8,-115.8 -104.4,-154.8"
         style="fill:#7fd07f;fill-opacity:1;fill-rule:nonzero;stroke:none"
         transform="matrix(0.13333333,0,0,-0.13333333,0,2933.3333)" />
      <path
         id="path22"
         d="m 17120.8,16267.6 c -57.9,-88.8 -122.8,-71.8 -187.7,-54.8 -826.5,285.5 -1678.6,473.9 -2532,523.9 709.1,-601.5 1138.7,-1476.5 1136.6,-2411.9 6.9,-105.8 -83.4,-186.2 -189.2,-193.2 -64.9,17 -97.4,25.5 -121.2,66.5 -538.5,591.5 -1143.5,1061.8 -1838.7,1451.8 -101.9,-389.4 -203.8,-778.7 -370.6,-1151.1 -66.3,-121.2 -180.6,-160.6 -310.4,-126.7 -64.9,17 -121.3,66.4 -136.8,139.8 -39.1,123.1 -85.1,243.1 -137.4,359.7 115.3,-24.9 216.2,13.7 275.9,122.8 156.8,350.1 252.6,716.1 348.4,1082.1 653.5,-366.6 1222.2,-808.7 1728.4,-1365 22.5,-38.4 53,-46.4 114,-62.3 99.5,6.5 184.5,82 177.9,181.5 2,879.4 -401.8,1702 -1068.5,2267.5 802.4,-47 1603.3,-224 2380.4,-492.5 61,-16 121.9,-31.9 176.4,51.6 84.9,75.5 78.4,175 33.3,251.9 -292.8,355.4 -631.6,669.8 -1004.5,935.7 593,-336.1 1125,-780.1 1561.2,-1309.3 47.8,-81.8 54.8,-187.6 -35.5,-268"
         style="fill:#51c05f;fill-opacity:1;fill-rule:nonzero;stroke:none"
         transform="matrix(0.13333333,0,0,-0.13333333,0,2933.3333)" />
    </g>
  </g>
</svg>
